# xmcd
# 
# Track frame offsets:
#     150
#     20279
#     37312
#     60890
#     89322
#     106820
#     128361
#     147198
#     163541
#     180398
#     195135
#     223183
# 
# Disc length: 3349
# 
# Revision: 2
# Processed by: cddbd v1.5.2PL0 Copyright (c) Steve Scherf et al.
# Submitted via: fre:ac v1.0.17
# 
DISCID=910d130c
DTITLE=Bosse - Leise Landung Live - Die Kraniche Akustiktournee 2014
DYEAR=2016
DGENRE=Deutsch Pop/Rock
TTITLE0=3 Millionen
TTITLE1=Die Nacht
TTITLE2=Istanbul
TTITLE3=Frankfurt Oder
TTITLE4=Die Regie
TTITLE5=Wartesaal
TTITLE6=So oder so
TTITLE7=Gegen Murphy
TTITLE8=Wende der Zeit
TTITLE9=Alter Strand
TTITLE10=Kraniche
TTITLE11=Schönste Zeit
EXTD=
EXTT0=
EXTT1=
EXTT2=
EXTT3=
EXTT4=
EXTT5=
EXTT6=
EXTT7=
EXTT8=
EXTT9=
EXTT10=
EXTT11=
PLAYORDER=
